<svg xmlns="http://www.w3.org/2000/svg" viewBox="0 0 501 501"><defs><style>.cls-1{isolation:isolate;}.cls-2{mix-blend-mode:multiply;}.cls-3{fill:none;stroke:none;stroke-miterlimit:10;}.cls-4{fill:#ebebeb;}.cls-5{fill:#455a64;}.cls-6{fill:#263238;}.cls-7{fill:#ffe9a9;}.cls-8{fill:#ffc727;}.cls-9{fill:#cc9f1f;}.cls-10{fill:#ffbe9d;}.cls-11{fill:#eb996e;}</style></defs><g class="cls-1"><g id="BACKGROUND" class="cls-2"><rect class="cls-3" x="0.5" y="0.5" width="500" height="500"/></g><g id="OBJECTS"><path class="cls-4" d="M123.12,378.43C96.46,330.52,102,320.71,77.6,302s-37.4-62.59,0-108.93S73,91.67,129.23,60.29c49.5-27.64,75.88,28.55,126.58,7.41s112.48-30.89,145,13.82S410.3,169.58,429,214.3s19.42,95.26-8.94,120.86c-37.25,33.62-62.61,36.85-84.55,65.3C297.48,449.78,156.45,438.32,123.12,378.43Z" transform="translate(0.5 0.5)"/><path class="cls-5" d="M212.62,380h68.71a0,0,0,0,1,0,0v46.82a16.12,16.12,0,0,1-16.12,16.12H228.74a16.12,16.12,0,0,1-16.12-16.12V380A0,0,0,0,1,212.62,380Z"/><rect class="cls-6" x="212.62" y="414.86" width="68.71" height="3.54"/><path class="cls-6" d="M212.12,423.78v2.51c0,.34,0,.68,0,1h68.6c0-.34.05-.68.05-1v-2.51Z" transform="translate(0.5 0.5)"/><path class="cls-6" d="M277,436.73a16.22,16.22,0,0,0,2.28-3.54H213.69a16.22,16.22,0,0,0,2.28,3.54Z" transform="translate(0.5 0.5)"/><path class="cls-7" d="M357.33,226.18A110.87,110.87,0,1,0,159.52,295L183.4,327.3a99.73,99.73,0,0,1,19.5,59.22v3.82a20.26,20.26,0,0,0,20.26,20.26h46.63a20.26,20.26,0,0,0,20.26-20.26v-3.82a99.67,99.67,0,0,1,19.5-59.22L333.43,295h0A110.38,110.38,0,0,0,357.33,226.18Z" transform="translate(0.5 0.5)"/><path class="cls-8" d="M265.2,410.6h3.63l42.55-192.25a25.6,25.6,0,0,0,.61-5.59v-.13c0-.3-2.55-30.42-26.89-31.34A20,20,0,0,0,271,186.47c-5.44-6.17-13.37-10.44-24-10.93h-1c-10.61.66-18.51,4.89-23.95,10.91a20.05,20.05,0,0,0-14.13-5.16c-24.34.92-26.87,31-26.89,31.34v.13a26.23,26.23,0,0,0,.61,5.59L224.11,410.6h3.62L185,217.59a22.4,22.4,0,0,1-.53-4.76c.13-1.42,2.75-27.22,23.49-28a16.37,16.37,0,0,1,11.78,4.37,39.78,39.78,0,0,0-7.18,24.58c.36,10.25,4.5,17.38,10.08,17.38h0c3.58,0,6.49-1.86,8.4-5.31,4.32-7.79,2.71-22.47-3.59-32.72a29.7,29.7,0,0,0-3.12-4.25c4.63-5.25,11.55-9.17,21.64-9.79h.79c10.09.47,17,4.53,21.59,10a31.52,31.52,0,0,0-3,4.1c-6.31,10.25-7.92,24.93-3.59,32.72,1.91,3.45,4.82,5.29,8.4,5.31,5.67.07,9.64-7,9.92-17.45a40.9,40.9,0,0,0-7-24.46A16.39,16.39,0,0,1,285,184.82c20.87.79,23.35,26.21,23.5,28a22.4,22.4,0,0,1-.53,4.76ZM224.5,195c5.61,9.12,7.21,22.48,3.51,29.16a6,6,0,0,1-5.34,3.49h0c-3.4,0-6.27-6.13-6.54-14a37.81,37.81,0,0,1,6.07-21.93A28.41,28.41,0,0,1,224.5,195Zm52.12,18.64c-.21,7.86-3,14-6.34,14h0a6,6,0,0,1-5.33-3.49c-3.71-6.68-2.1-20,3.51-29.16a29,29,0,0,1,2.15-3.05A39.27,39.27,0,0,1,276.62,213.61Z" transform="translate(0.5 0.5)"/><path class="cls-6" d="M246.47,106.09a2.36,2.36,0,0,1-2.36-2.36V84a2.36,2.36,0,0,1,4.72,0v19.72A2.36,2.36,0,0,1,246.47,106.09Z" transform="translate(0.5 0.5)"/><path class="cls-6" d="M391.45,236.5H371.73a2.36,2.36,0,1,1,0-4.71h19.72a2.36,2.36,0,1,1,0,4.71Z" transform="translate(0.5 0.5)"/><path class="cls-6" d="M121.67,236.5H102a2.36,2.36,0,1,1,0-4.71h19.72a2.36,2.36,0,0,1,0,4.71Z" transform="translate(0.5 0.5)"/><path class="cls-6" d="M346.7,336.5a2.36,2.36,0,0,1-1.67-.69l-13.94-13.95a2.35,2.35,0,0,1,3.33-3.33l13.95,14a2.36,2.36,0,0,1-1.67,4Z" transform="translate(0.5 0.5)"/><path class="cls-6" d="M155.93,145.73a2.36,2.36,0,0,1-1.67-.69L140.32,131.1a2.36,2.36,0,0,1,3.33-3.34l13.95,14a2.36,2.36,0,0,1-1.67,4Z" transform="translate(0.5 0.5)"/><path class="cls-6" d="M332.75,145.73a2.36,2.36,0,0,1-1.66-4l13.94-14a2.36,2.36,0,0,1,3.34,3.34L334.42,145A2.35,2.35,0,0,1,332.75,145.73Z" transform="translate(0.5 0.5)"/><path class="cls-6" d="M142,336.5a2.36,2.36,0,0,1-1.66-4l13.94-14a2.36,2.36,0,1,1,3.34,3.33l-13.95,13.95A2.35,2.35,0,0,1,142,336.5Z" transform="translate(0.5 0.5)"/><path class="cls-8" d="M246.47,388.6s-71.33-8.22-75.33,61.39a5.9,5.9,0,0,0,5.89,6.22H315.91A5.9,5.9,0,0,0,321.8,450C317.8,380.38,246.47,388.6,246.47,388.6Z" transform="translate(0.5 0.5)"/><polygon class="cls-9" points="202.59 456.71 202.59 420.41 190.42 456.71 202.59 456.71"/><polygon class="cls-9" points="291.35 456.71 291.35 420.41 303.52 456.71 291.35 456.71"/><path class="cls-10" d="M222,344.76v46.43c0,13.54,11,21,24.52,21s24.52-7.44,24.52-21V344.76Z" transform="translate(0.5 0.5)"/><path class="cls-11" d="M271,364.71l-49,1.41V379a40.66,40.66,0,0,0,24.52,9.59c10.3.41,18.9-5.21,24.52-10.3Z" transform="translate(0.5 0.5)"/><path class="cls-6" d="M200.76,321s-10.36-24.53-10-47.32,28-25.9,40.06-35.92,13.47-15.54,16.92-11.74-5.18,13.12-5.18,13.12,24.18-10.7,31.09-6.21-5.18,6.9-5.18,6.9,20.72,6.82,25.21,19.13S281.58,265,281.58,265l1.38-4.48a24.08,24.08,0,0,1,14,18.3c2.21,13.81-3.31,37-7.8,45.11s-48.35,11.53-48.35,11.53Z" transform="translate(0.5 0.5)"/><path class="cls-10" d="M283.38,315.3c-.23,0-.45,0-.68,0L282.06,290s1.51-12-14.39-16.88c0,0-6.11,6.79-27.91,3.57-19.79-2.92-24.33-8.76-24.33-8.76s-8.56,3.57-8.88,18.82c-.14,6.34-.58,17.63.34,28.65-7.29.84-13.81,7.33-13.16,14.68a13.59,13.59,0,0,0,14.52,12.36c.22,2.12.36,3.38.36,3.38h0a37.46,37.46,0,0,0,74.77-3.34h0a13.6,13.6,0,1,0,0-27.19Z" transform="translate(0.5 0.5)"/><path class="cls-5" d="M263.57,275.54a12.23,12.23,0,0,0,2.82-1.66,6,6,0,0,0,1.9-2.46,4.32,4.32,0,0,0,.12-2.9,7.76,7.76,0,0,0-1.52-2.63,19.71,19.71,0,0,0-4.92-4,34.21,34.21,0,0,0-5.82-2.79,44.3,44.3,0,0,0-12.71-2.6c-4.37-.32-8.79-.42-13.22-.33a71.06,71.06,0,0,1,13.29-1,38.86,38.86,0,0,1,13.25,2.3,33.56,33.56,0,0,1,6.1,3A19.51,19.51,0,0,1,268,265a8.69,8.69,0,0,1,1.56,3.2,5.37,5.37,0,0,1-.46,3.57,6.7,6.7,0,0,1-2.43,2.47A9.9,9.9,0,0,1,263.57,275.54Z" transform="translate(0.5 0.5)"/><path class="cls-5" d="M273.6,264.58A110.7,110.7,0,0,0,285,265.93a24,24,0,0,0,5.52-.26,5.42,5.42,0,0,0,2.26-.9,1.77,1.77,0,0,0,.58-.77,5.11,5.11,0,0,0,.14-.54,4.58,4.58,0,0,0,.08-.62,9.31,9.31,0,0,0-1.16-5,21.9,21.9,0,0,0-3.12-4.55,58.58,58.58,0,0,0-8.41-7.66,37.18,37.18,0,0,1,9.42,6.72,21.21,21.21,0,0,1,3.6,4.72,10.88,10.88,0,0,1,1.43,6,5.52,5.52,0,0,1-.12.8,4.88,4.88,0,0,1-.23.84,3.6,3.6,0,0,1-1.14,1.48,6.53,6.53,0,0,1-3,1.19,21.8,21.8,0,0,1-5.93,0A52.39,52.39,0,0,1,273.6,264.58Z" transform="translate(0.5 0.5)"/><path class="cls-5" d="M269.13,231.78A83.08,83.08,0,0,0,258.92,234c-3.34.94-6.64,2-9.87,3.26-1.6.65-3.23,1.24-4.8,2l-2.38,1c-.78.39-1.56.76-2.35,1.13-1.58.72-3.09,1.58-4.66,2.35s-3.06,1.69-4.64,2.48c1.36-1.11,2.75-2.2,4.19-3.22s2.91-2,4.46-2.83a68.15,68.15,0,0,1,9.55-4.59,63.33,63.33,0,0,1,10.18-2.94A40.57,40.57,0,0,1,269.13,231.78Z" transform="translate(0.5 0.5)"/><path class="cls-6" d="M229.22,306.88a3.43,3.43,0,1,1-3.42-3.43A3.43,3.43,0,0,1,229.22,306.88Z" transform="translate(0.5 0.5)"/><path class="cls-6" d="M265.81,306.88a3.43,3.43,0,1,1-3.42-3.43A3.43,3.43,0,0,1,265.81,306.88Z" transform="translate(0.5 0.5)"/><path class="cls-6" d="M217.76,309.29a7.31,7.31,0,0,1,2.06-5.46,8.15,8.15,0,0,1,5.7-2.4,8.49,8.49,0,0,1,5.87,1.88,6.85,6.85,0,0,1,2.45,5.31,9.78,9.78,0,0,0-3.62-3.66,9,9,0,0,0-4.61-1,8.24,8.24,0,0,0-4.47,1.35A11.09,11.09,0,0,0,217.76,309.29Z" transform="translate(0.5 0.5)"/><path class="cls-6" d="M254.35,309.29a7.31,7.31,0,0,1,2.06-5.46,8.15,8.15,0,0,1,5.7-2.4,8.49,8.49,0,0,1,5.87,1.88,6.85,6.85,0,0,1,2.45,5.31,9.78,9.78,0,0,0-3.62-3.66,9,9,0,0,0-4.61-1,8.24,8.24,0,0,0-4.47,1.35A11.09,11.09,0,0,0,254.35,309.29Z" transform="translate(0.5 0.5)"/><path class="cls-6" d="M238.41,298.83a55.41,55.41,0,0,1,2.68,13.4,63.16,63.16,0,0,1,.19,6.88c-.07,2.29-.28,4.58-.48,6.83-.11,1.12-.21,2.24-.22,3.31a5.14,5.14,0,0,0,.56,2.79,3.07,3.07,0,0,0,2.38,1.07,4.18,4.18,0,0,0,2.78-.61c1.65-1.09,2.52-3.3,2.91-5.43a17.72,17.72,0,0,0,0-6.69,16.09,16.09,0,0,1,.88,6.8,11.9,11.9,0,0,1-.78,3.45,6.66,6.66,0,0,1-2.19,3,5.46,5.46,0,0,1-3.68,1,6.2,6.2,0,0,1-1.89-.37,3.6,3.6,0,0,1-1.72-1.26,4.67,4.67,0,0,1-.78-1.91,11.7,11.7,0,0,1-.15-1.84c0-1.2.09-2.34.18-3.48a99.79,99.79,0,0,0,.67-13.47A92.77,92.77,0,0,0,238.41,298.83Z" transform="translate(0.5 0.5)"/><path class="cls-6" d="M231.06,340.14a17.87,17.87,0,0,0,5.94,4.64,14.75,14.75,0,0,0,7.12,1.4,20.41,20.41,0,0,0,7.22-1.59,16.22,16.22,0,0,0,6.06-4.45,12.34,12.34,0,0,1-5.45,5.69,17.21,17.21,0,0,1-3.75,1.51,20.78,20.78,0,0,1-4,.6l-1,0c-.34,0-.68,0-1-.08a11.6,11.6,0,0,1-2-.32,13.72,13.72,0,0,1-9.06-7.42Z" transform="translate(0.5 0.5)"/><path class="cls-6" d="M214.38,292.59a68.07,68.07,0,0,1,16.15-2.22,1.11,1.11,0,0,0,.9-1.74c-1.08-1.55-3.56-3.52-9.12-3-6.65.6-8.68,3.61-9.3,5.62A1.11,1.11,0,0,0,214.38,292.59Z" transform="translate(0.5 0.5)"/><path class="cls-6" d="M271.49,292.59a68.28,68.28,0,0,0-16.16-2.22,1.12,1.12,0,0,1-.9-1.74c1.08-1.55,3.57-3.52,9.12-3,6.65.6,8.69,3.61,9.3,5.62A1.1,1.1,0,0,1,271.49,292.59Z" transform="translate(0.5 0.5)"/><path class="cls-11" d="M207,338.82a10,10,0,0,1-6.61-2.57,9.8,9.8,0,0,1-3.08-6.67,8.71,8.71,0,0,1,8.78-9.8,11.35,11.35,0,0,0-5.48,3.68,7.32,7.32,0,0,0-1.31,2.83,10,10,0,0,0-.25,1.56c0,.53,0,1.07,0,1.6a10.23,10.23,0,0,0,.67,3.12,8.46,8.46,0,0,0,.67,1.43,11.09,11.09,0,0,0,6.59,4.82Z" transform="translate(0.5 0.5)"/><path class="cls-11" d="M283.62,319.12a10,10,0,0,1,6.61,2.57,9.8,9.8,0,0,1,3.08,6.67,8.7,8.7,0,0,1-8.78,9.8,11.35,11.35,0,0,0,5.48-3.68,7.26,7.26,0,0,0,1.31-2.83,11.28,11.28,0,0,0,.25-1.56c0-.53,0-1.07,0-1.6a10.6,10.6,0,0,0-.67-3.12,9.78,9.78,0,0,0-.67-1.43,11.87,11.87,0,0,0-1-1.28A12.77,12.77,0,0,0,283.62,319.12Z" transform="translate(0.5 0.5)"/><path class="cls-6" d="M391.46,376.06h0l-9.37-26.21a2.4,2.4,0,0,0-3.08-1.44l-19.81,7.27a2.39,2.39,0,0,0-1.44,3l6.76,19.56c-2.11-.12-4.36.42-6.83,4.17a6.31,6.31,0,0,0-1.07,4.23,7.52,7.52,0,0,0,9.92,6.19,7.42,7.42,0,0,0,5-6,7.65,7.65,0,0,0-.29-3.43l.1,0-7.4-21.09,15.48-5.68,5.26,14.49c-2.15-.07-4.42.44-7.23,5.91a4.22,4.22,0,0,0-.49,2.41,7.5,7.5,0,0,0,8.77,6.57,7.63,7.63,0,0,0,5.66-4.78A7,7,0,0,0,391.46,376.06Z" transform="translate(0.5 0.5)"/><path class="cls-8" d="M395.81,283.73l.09,0,9.62-20.16,3.19-7.19h0l-1.86-.86a2.4,2.4,0,0,0-3.16,1.14l-9,18.64h0c-1.43-1.6-3.47-2.83-8.07-1.79a5.88,5.88,0,0,0-3.09,1.76,7.52,7.52,0,0,0,2.31,11.8,7.43,7.43,0,0,0,7.76-.74A7.75,7.75,0,0,0,395.81,283.73Z" transform="translate(0.5 0.5)"/><path class="cls-8" d="M192.55,88.89l-3.9-.11a19.24,19.24,0,0,0-2.06-4.45,19.46,19.46,0,0,0-3.54-4.14l1.61-3.71a3.37,3.37,0,0,0-1.74-4.43l-5.15-2.24a3.37,3.37,0,0,0-4.43,1.74l-1.68,3.87a19.18,19.18,0,0,0-6,.49l-2.27-3.59a3.37,3.37,0,0,0-4.65-1l-4.74,3a3.37,3.37,0,0,0-1,4.65l2.27,3.58a19.41,19.41,0,0,0-3,5.25L148,87.64a3.37,3.37,0,0,0-3.46,3.28l-.16,5.61a3.38,3.38,0,0,0,3.27,3.46l4.05.11a19.41,19.41,0,0,0,2.21,4.91,19,19,0,0,0,3.19,3.81l-1.56,3.58a3.37,3.37,0,0,0,1.74,4.43l5.15,2.24a3.37,3.37,0,0,0,4.43-1.75l1.5-3.44a19.25,19.25,0,0,0,6.45-.45l2,3.13a3.37,3.37,0,0,0,4.65,1l4.74-3a3.37,3.37,0,0,0,1-4.65l-2-3.12a19,19,0,0,0,3.19-5.7l3.75.1A3.36,3.36,0,0,0,195.66,98l.16-5.61A3.36,3.36,0,0,0,192.55,88.89Zm-17.05,14a9.79,9.79,0,1,1,3-13.51A9.8,9.8,0,0,1,175.5,102.94Z" transform="translate(0.5 0.5)"/><path class="cls-6" d="M105.64,189.36,67.12,216.67l-6.91-9.79,38.52-27.31a3.26,3.26,0,0,1,4.53.78l3.16,4.48A3.26,3.26,0,0,1,105.64,189.36Z" transform="translate(0.5 0.5)"/><path class="cls-8" d="M61.61,208.2l-1.4-1.32a18.49,18.49,0,0,1-6,10l.69,1,.69,1a18.12,18.12,0,0,1,11.52-2.17C64.81,211.7,69,208,69,208,65.58,210.1,63.06,209.2,61.61,208.2Z" transform="translate(0.5 0.5)"/><path class="cls-6" d="M54.22,216.89l2.13,0-.75,2-2.9,2a.77.77,0,0,1-1.08-.19l-.48-.67a.77.77,0,0,1,.19-1.08Z" transform="translate(0.5 0.5)"/><path class="cls-8" d="M388.92,90.79c-10.35-26.9-36.73-26.14-51.83-9.6,0,0-12.47,13.47-3.37,27s22.15,4.44,33.56,12.91S399.27,117.7,388.92,90.79ZM374,116.46a5.11,5.11,0,1,1,7.11,1.26A5.1,5.1,0,0,1,374,116.46Z" transform="translate(0.5 0.5)"/><path class="cls-6" d="M356.81,108.55a3.88,3.88,0,1,1-3.87-3.88A3.87,3.87,0,0,1,356.81,108.55Z" transform="translate(0.5 0.5)"/><circle class="cls-6" cx="341.48" cy="103.76" r="3.88"/><path class="cls-6" d="M345.74,89.41a3.88,3.88,0,1,1-3.88-3.88A3.88,3.88,0,0,1,345.74,89.41Z" transform="translate(0.5 0.5)"/><path class="cls-6" d="M355.05,80.09a3.88,3.88,0,1,1-3.88-3.87A3.88,3.88,0,0,1,355.05,80.09Z" transform="translate(0.5 0.5)"/><path class="cls-6" d="M368,78.58a3.88,3.88,0,1,1-3.88-3.87A3.88,3.88,0,0,1,368,78.58Z" transform="translate(0.5 0.5)"/><path class="cls-8" d="M115.92,318.57l-36.82,17a2.87,2.87,0,0,0-1.36,3.91l25.58,50.87a2.87,2.87,0,0,0,3.86,1.28L144.59,373a2.88,2.88,0,0,0,1.26-3.93l-26.17-49.21A2.89,2.89,0,0,0,115.92,318.57Z" transform="translate(0.5 0.5)"/><rect class="cls-6" x="85.07" y="334.55" width="34.3" height="1.72" transform="translate(-135.36 78.49) rotate(-25.82)"/><rect class="cls-6" x="87.4" y="340.78" width="21.96" height="1.72" transform="translate(-138.46 77.44) rotate(-25.82)"/><rect class="cls-6" x="88.76" y="342.8" width="28.96" height="1.72" transform="translate(-138.86 79.76) rotate(-25.82)"/><rect class="cls-6" x="90.21" y="345.18" width="34.3" height="1.72" transform="translate(-139.48 81.79) rotate(-25.82)"/><rect class="cls-6" x="92.4" y="350.81" width="24.71" height="1.72" transform="translate(-142.19 81.22) rotate(-25.82)"/><rect class="cls-6" x="93.8" y="352.98" width="31" height="1.72" transform="translate(-142.69 83.42) rotate(-25.82)"/></g></g></svg>